<?xml version="1.0" encoding="UTF-8" standalone="no"?>
<svg width="30px" height="30px" viewBox="0 0 60 60" version="1.1" xmlns="http://www.w3.org/2000/svg" xmlns:xlink="http://www.w3.org/1999/xlink" xmlns:sketch="http://www.bohemiancoding.com/sketch/ns">
    <!-- Generator: Sketch 3.4.4 (17249) - http://www.bohemiancoding.com/sketch -->
    <title>Sunrise</title>
    <desc>Created with Sketch.</desc>
    <defs>
        <path id="path-1" d="M0,0.527 L898.02,0.527 L898.02,2099 L0,2099 L0,0.527 Z"></path>
        <path id="path-3" d="M0,0.527 L898.02,0.527 L898.02,2099 L0,2099 L0,0.527 Z"></path>
        <path id="path-5" d="M0,0.527 L898.02,0.527 L898.02,2099 L0,2099 L0,0.527 Z"></path>
        <path id="path-7" d="M0,0.527 L898.02,0.527 L898.02,2099 L0,2099 L0,0.527 Z"></path>
        <path id="path-9" d="M0,0.527 L898.02,0.527 L898.02,2099 L0,2099 L0,0.527 Z"></path>
        <path id="path-11" d="M0,0.527 L898.02,0.527 L898.02,2099 L0,2099 L0,0.527 Z"></path>
        <path id="path-13" d="M0,0.527 L898.02,0.527 L898.02,2099 L0,2099 L0,0.527 Z"></path>
        <path id="path-15" d="M0,0.527 L898.02,0.527 L898.02,2099 L0,2099 L0,0.527 Z"></path>
        <path id="path-17" d="M0,0.527 L898.02,0.527 L898.02,2099 L0,2099 L0,0.527 Z"></path>
        <path id="path-19" d="M0,0.527 L898.02,0.527 L898.02,2099 L0,2099 L0,0.527 Z"></path>
        <path id="path-21" d="M0,0.527 L898.02,0.527 L898.02,2099 L0,2099 L0,0.527 Z"></path>
        <path id="path-23" d="M0,0.527 L898.02,0.527 L898.02,2099 L0,2099 L0,0.527 Z"></path>
        <path id="path-25" d="M0,0.527 L898.02,0.527 L898.02,2099 L0,2099 L0,0.527 Z"></path>
        <path id="path-27" d="M0,0.527 L898.02,0.527 L898.02,2099 L0,2099 L0,0.527 Z"></path>
        <path id="path-29" d="M0,0.527 L898.02,0.527 L898.02,2099 L0,2099 L0,0.527 Z"></path>
        <path id="path-31" d="M0,0.527 L898.02,0.527 L898.02,2099 L0,2099 L0,0.527 Z"></path>
        <path id="path-33" d="M0,0.527 L898.02,0.527 L898.02,2099 L0,2099 L0,0.527 Z"></path>
    </defs>
    <g id="outlined" stroke="none" stroke-width="1" fill="none" fill-rule="evenodd" sketch:type="MSPage">
        <g id="Page-1" sketch:type="MSLayerGroup" transform="translate(-598.997156, -2039.513239)">
            <g id="Group-66">
                <mask id="mask-2" sketch:name="Clip 62" fill="white">
                    <use xlink:href="#path-1"></use>
                </mask>
                <g id="Clip-62"></g>
            </g>
            <g id="Group-143">
                <mask id="mask-4" sketch:name="Clip 128" fill="white">
                    <use xlink:href="#path-3"></use>
                </mask>
                <g id="Clip-128"></g>
            </g>
            <g id="Group-175">
                <mask id="mask-6" sketch:name="Clip 152" fill="white">
                    <use xlink:href="#path-5"></use>
                </mask>
                <g id="Clip-152"></g>
            </g>
            <g id="Group-214"></g>
            <g id="Group-237"></g>
            <g id="Group-297"></g>
            <g id="Group-319"></g>
            <g id="Group-383">
                <mask id="mask-8" sketch:name="Clip 362" fill="white">
                    <use xlink:href="#path-7"></use>
                </mask>
                <g id="Clip-362"></g>
            </g>
            <g id="Group-398"></g>
            <g id="Group-409"></g>
            <g id="Group-435"></g>
            <g id="Group-456">
                <mask id="mask-10" sketch:name="Clip 455" fill="white">
                    <use xlink:href="#path-9"></use>
                </mask>
                <g id="Clip-455"></g>
            </g>
            <g id="Group-477">
                <mask id="mask-12" sketch:name="Clip 476" fill="white">
                    <use xlink:href="#path-11"></use>
                </mask>
                <g id="Clip-476"></g>
            </g>
            <g id="Group-498">
                <mask id="mask-14" sketch:name="Clip 497" fill="white">
                    <use xlink:href="#path-13"></use>
                </mask>
                <g id="Clip-497"></g>
            </g>
            <g id="Group-519">
                <mask id="mask-16" sketch:name="Clip 518" fill="white">
                    <use xlink:href="#path-15"></use>
                </mask>
                <g id="Clip-518"></g>
            </g>
            <g id="Group-540">
                <mask id="mask-18" sketch:name="Clip 539" fill="white">
                    <use xlink:href="#path-17"></use>
                </mask>
                <g id="Clip-539"></g>
            </g>
            <g id="Group-561">
                <mask id="mask-20" sketch:name="Clip 560" fill="white">
                    <use xlink:href="#path-19"></use>
                </mask>
                <g id="Clip-560"></g>
            </g>
            <g id="Group-582">
                <mask id="mask-22" sketch:name="Clip 581" fill="white">
                    <use xlink:href="#path-21"></use>
                </mask>
                <g id="Clip-581"></g>
            </g>
            <g id="Group-670">
                <mask id="mask-24" sketch:name="Clip 602" fill="white">
                    <use xlink:href="#path-23"></use>
                </mask>
                <g id="Clip-602"></g>
            </g>
            <g id="Group-739">
                <mask id="mask-26" sketch:name="Clip 694" fill="white">
                    <use xlink:href="#path-25"></use>
                </mask>
                <g id="Clip-694"></g>
            </g>
            <g id="Group-830"></g>
            <g id="Group-857"></g>
            <g id="Group-900">
                <mask id="mask-28" sketch:name="Clip 896" fill="white">
                    <use xlink:href="#path-27"></use>
                </mask>
                <g id="Clip-896"></g>
            </g>
            <g id="Group-989">
                <mask id="mask-30" sketch:name="Clip 924" fill="white">
                    <use xlink:href="#path-29"></use>
                </mask>
                <g id="Clip-924"></g>
            </g>
            <g id="Group-1003"></g>
            <g id="Group-1058">
                <mask id="mask-32" sketch:name="Clip 1033" fill="white">
                    <use xlink:href="#path-31"></use>
                </mask>
                <g id="Clip-1033"></g>
            </g>
            <g id="Group-1075">
                <mask id="mask-34" sketch:name="Clip 1065" fill="white">
                    <use xlink:href="#path-33"></use>
                </mask>
                <g id="Clip-1065"></g>
            </g>
            <g id="Group-1338" fill="currentColor" sketch:type="MSShapeGroup">
                <path d="M617.0381,2087.5273 L642.9621,2087.5273 C642.4491,2080.8243 636.8321,2075.5273 630.0001,2075.5273 C623.1681,2075.5273 617.5511,2080.8243 617.0381,2087.5273 M644.0001,2089.5273 L616.0001,2089.5273 C615.4471,2089.5273 615.0001,2089.0803 615.0001,2088.5273 C615.0001,2080.2563 621.7281,2073.5273 630.0001,2073.5273 C638.2711,2073.5273 645.0001,2080.2563 645.0001,2088.5273 C645.0001,2089.0803 644.5531,2089.5273 644.0001,2089.5273" id="Fill-1289"></path>
                <path d="M655.01,2089.527 L603,2089.527 L603,2087.527 L655.01,2087.527 L655.01,2089.527 Z" id="Fill-1290"></path>
                <path d="M630,2072.5273 C629.447,2072.5273 629,2072.0803 629,2071.5273 L629,2054.4983 C629,2053.9453 629.447,2053.4983 630,2053.4983 C630.553,2053.4983 631,2053.9453 631,2054.4983 L631,2071.5273 C631,2072.0803 630.553,2072.5273 630,2072.5273" id="Fill-1291"></path>
                <path d="M642.8301,2077.5117 C642.5741,2077.5117 642.3181,2077.4137 642.1231,2077.2187 C641.7321,2076.8277 641.7321,2076.1957 642.1231,2075.8047 L652.3731,2065.5547 C652.7641,2065.1637 653.3961,2065.1637 653.7871,2065.5547 C654.1781,2065.9457 654.1781,2066.5777 653.7871,2066.9687 L643.5371,2077.2187 C643.3421,2077.4137 643.0861,2077.5117 642.8301,2077.5117" id="Fill-1292"></path>
                <path d="M617.125,2077.5117 C616.869,2077.5117 616.613,2077.4137 616.418,2077.2187 L606.168,2066.9687 C605.777,2066.5777 605.777,2065.9457 606.168,2065.5547 C606.559,2065.1637 607.191,2065.1637 607.582,2065.5547 L617.832,2075.8047 C618.223,2076.1957 618.223,2076.8277 617.832,2077.2187 C617.637,2077.4137 617.381,2077.5117 617.125,2077.5117" id="Fill-1293"></path>
            </g>
        </g>
        <g id="Free_sliced" sketch:type="MSLayerGroup" transform="translate(-600.000000, -2040.000000)"></g>
    </g>
</svg>